<svg xmlns="http://www.w3.org/2000/svg" version="1.1" xmlns:xlink="http://www.w3.org/1999/xlink" xmlns:svgjs="http://svgjs.dev/svgjs" width="1440" height="560" preserveAspectRatio="none" viewBox="0 0 1440 560"><g mask="url(&quot;#SvgjsMask1087&quot;)" fill="none"><rect width="1440" height="560" x="0" y="0" fill="rgba(166, 168, 170, 1)"></rect><path d="M0,643.578C118.473,646.201,190.624,514.91,284.128,442.111C368.081,376.748,491.681,340.213,521.01,237.937C550.411,135.411,459.014,40.604,428.579,-61.62C403.5,-145.856,408.05,-237.936,357.85,-310.079C304.565,-386.655,227.737,-445.029,139.906,-476.476C48.938,-509.047,-47.663,-499.514,-143.785,-489.687C-259.512,-477.856,-390.921,-491.552,-477.087,-413.398C-564.647,-333.98,-571.783,-201.628,-590.128,-84.848C-608.69,33.315,-646.221,164.562,-583.918,266.667C-522.197,367.817,-375.71,365.444,-276.155,429.706C-176.311,494.154,-118.808,640.947,0,643.578" fill="#848689"></path><path d="M1440 948.5C1515.367 947.134 1600.994 947.034 1654.814 894.2570000000001 1707.768 842.328 1697.766 756.5409999999999 1710.296 683.44 1719.71 628.518 1714.675 575.444 1718.984 519.888 1724.796 444.96500000000003 1771.874 368.087 1740.039 300.015 1707.334 230.08300000000003 1630.489 184.29399999999998 1554.838 168.899 1481.241 153.92200000000003 1409.029 189.57100000000003 1339.742 218.55399999999997 1277.027 244.788 1215.908 275.914 1172.983 328.629 1130.829 380.397 1103.883 444.598 1101.355 511.31 1098.9569999999999 574.589 1140.9470000000001 627.576 1159.359 688.164 1181.363 760.571 1164.641 850.6700000000001 1220.122 902.137 1276.172 954.1320000000001 1363.56 949.886 1440 948.5" fill="#c8cacb"></path></g><defs><mask id="SvgjsMask1087"><rect width="1440" height="560" fill="#ffffff"></rect></mask></defs></svg>